<svg xmlns="http://www.w3.org/2000/svg" width="24" height="24" viewBox="0 0 24 24" fill="none">
  <path d="M13 20H5C4.46957 20 3.96086 19.7893 3.58579 19.4142C3.21071 19.0392 3 18.5304 3 18V9.00001C3 8.46958 3.21071 7.96087 3.58579 7.5858C3.96086 7.21073 4.46957 7.00001 5 7.00001C5.65603 7.00001 6.15396 7.00001 6.6716 7.00001C7.46588 7.00001 8.29005 6.27949 8.6415 5.5672C9.09713 4.64377 9.93664 4.29291 10.9664 4.29291H13.0934C14.0835 4.29291 14.8713 4.60599 15.3056 5.49574C15.6729 6.24835 16.5495 7.00001 17.3869 7.00001C17.8908 7.00001 18.3849 7.00001 19 7.00001C19.5304 7.00001 20.0391 7.21073 20.4142 7.5858C20.7893 7.96087 21 8.46958 21 9.00001V12.5M9 13C9 13.7957 9.31607 14.5587 9.87868 15.1213C10.4413 15.6839 11.2044 16 12 16C12.7956 16 13.5587 15.6839 14.1213 15.1213C14.6839 14.5587 15 13.7957 15 13C15 12.2044 14.6839 11.4413 14.1213 10.8787C13.5587 10.3161 12.7956 10 12 10C11.2044 10 10.4413 10.3161 9.87868 10.8787C9.31607 11.4413 9 12.2044 9 13Z" stroke="#08021E" stroke-width="1.8" stroke-linecap="round" stroke-linejoin="round"/>
  <path d="M13 20H5C4.46957 20 3.96086 19.7893 3.58579 19.4142C3.21071 19.0392 3 18.5304 3 18V9.00001C3 8.46958 3.21071 7.96087 3.58579 7.5858C3.96086 7.21073 4.46957 7.00001 5 7.00001C5.65603 7.00001 6.15396 7.00001 6.6716 7.00001C7.46588 7.00001 8.29005 6.27949 8.6415 5.5672C9.09713 4.64377 9.93664 4.29291 10.9664 4.29291H13.0934C14.0835 4.29291 14.8713 4.60599 15.3056 5.49574C15.6729 6.24835 16.5495 7.00001 17.3869 7.00001C17.8908 7.00001 18.3849 7.00001 19 7.00001C19.5304 7.00001 20.0391 7.21073 20.4142 7.5858C20.7893 7.96087 21 8.46958 21 9.00001V12.5M9 13C9 13.7957 9.31607 14.5587 9.87868 15.1213C10.4413 15.6839 11.2044 16 12 16C12.7956 16 13.5587 15.6839 14.1213 15.1213C14.6839 14.5587 15 13.7957 15 13C15 12.2044 14.6839 11.4413 14.1213 10.8787C13.5587 10.3161 12.7956 10 12 10C11.2044 10 10.4413 10.3161 9.87868 10.8787C9.31607 11.4413 9 12.2044 9 13Z" stroke="black" stroke-opacity="0.2" stroke-width="1.8" stroke-linecap="round" stroke-linejoin="round"/>
  <path d="M18.9889 15.5222C19.1995 15.101 19.8005 15.101 20.0111 15.5222L20.7481 16.9963C20.8034 17.1069 20.8931 17.1966 21.0037 17.2519L22.4778 17.9889C22.899 18.1995 22.899 18.8005 22.4778 19.0111L21.0037 19.7481C20.8931 19.8034 20.8034 19.8931 20.7481 20.0037L20.0111 21.4778C19.8005 21.899 19.1995 21.899 18.9889 21.4778L18.2519 20.0037C18.1966 19.8931 18.1069 19.8034 17.9963 19.7481L16.5222 19.0111C16.101 18.8005 16.101 18.1995 16.5222 17.9889L17.9963 17.2519C18.1069 17.1966 18.1966 17.1069 18.2519 16.9963L18.9889 15.5222Z" fill="url(#paint0_linear_34423_1614)"/>
  <defs>
    <linearGradient id="paint0_linear_34423_1614" x1="15.5" y1="18.5" x2="23.5" y2="18.5" gradientUnits="userSpaceOnUse">
      <stop stop-color="#7B68FF"/>
      <stop offset="1" stop-color="#3370FF"/>
    </linearGradient>
  </defs>
</svg>