<svg width="36" height="34" viewBox="0 0 36 34" fill="none" xmlns="http://www.w3.org/2000/svg">
<path d="M9.33398 7.33398C9.33398 8.43855 10.2294 9.33398 11.334 9.33398C12.4384 9.33381 13.334 8.43845 13.334 7.33398V5.33398H18.667V7.33398C18.667 8.43855 19.5624 9.33398 20.667 9.33398C21.7716 9.33398 22.667 8.43855 22.667 7.33398V5.33398H23C25.9454 5.33398 28.3338 7.72162 28.334 10.667V24.001C28.3338 26.9463 25.9454 29.334 23 29.334H9C6.05474 29.3338 3.66717 26.9462 3.66699 24.001V10.667C3.66717 7.72173 6.05474 5.33416 9 5.33398H9.33398V7.33398Z" fill="url(#paint0_linear_407_10618)"/>
<g filter="url(#filter0_dii_407_10618)">
<path d="M11.3333 8.66602C10.597 8.66602 10 8.06906 10 7.33268L10 4.66602C10 3.92964 10.597 3.33268 11.3333 3.33268C12.0697 3.33268 12.6667 3.92964 12.6667 4.66602L12.6667 7.33268C12.6667 8.06906 12.0697 8.66602 11.3333 8.66602Z" fill="url(#paint1_linear_407_10618)" fill-opacity="0.32" shape-rendering="crispEdges"/>
</g>
<g filter="url(#filter1_dii_407_10618)">
<path d="M20.6663 8.66797C19.93 8.66797 19.333 8.07101 19.333 7.33464L19.333 4.66797C19.333 3.93159 19.93 3.33464 20.6663 3.33464C21.4027 3.33464 21.9997 3.93159 21.9997 4.66797L21.9997 7.33463C21.9997 8.07101 21.4027 8.66797 20.6663 8.66797Z" fill="url(#paint2_linear_407_10618)" fill-opacity="0.32" shape-rendering="crispEdges"/>
</g>
<g filter="url(#filter2_dii_407_10618)">
<path d="M8 15C8 14.4477 8.44772 14 9 14H15C15.5523 14 16 14.4477 16 15C16 15.5523 15.5523 16 15 16H9C8.44772 16 8 15.5523 8 15Z" fill="white"/>
</g>
<g filter="url(#filter3_dii_407_10618)">
<path d="M8 21C8 20.4477 8.44772 20 9 20H11C11.5523 20 12 20.4477 12 21C12 21.5523 11.5523 22 11 22H9C8.44772 22 8 21.5523 8 21Z" fill="white"/>
</g>
<foreignObject x="14" y="14" width="20" height="20"><div xmlns="http://www.w3.org/1999/xhtml" style="backdrop-filter:blur(1px);clip-path:url(#bgblur_0_407_10618_clip_path);height:100%;width:100%"></div></foreignObject><g filter="url(#filter4_ii_407_10618)" data-figma-bg-blur-radius="2">
<path d="M28.9524 17.7219C27.5962 16.64 25.8743 16 24 16C22.1257 16 20.3733 16.6552 19.0019 17.7676C17.1581 19.2152 16 21.4857 16 24C16 25.4933 16.4267 26.9257 17.1581 28.1143C17.7219 29.0438 18.4533 29.8514 19.3219 30.4762C20.6324 31.4362 22.2476 32 24 32C26.0267 32 27.8553 31.2533 29.2572 30.0038C29.8819 29.4857 30.4152 28.8457 30.8419 28.1143C31.5733 26.9257 32 25.4933 32 24C32 21.4552 30.8114 19.1848 28.9524 17.7219Z" fill="url(#paint3_linear_407_10618)" fill-opacity="0.12"/>
</g>
<mask id="mask0_407_10618" style="mask-type:alpha" maskUnits="userSpaceOnUse" x="16" y="16" width="16" height="16">
<path d="M28.9524 17.7219C27.5962 16.64 25.8743 16 24 16C22.1257 16 20.3733 16.6552 19.0019 17.7676C17.1581 19.2152 16 21.4857 16 24C16 25.4933 16.4267 26.9257 17.1581 28.1143C17.7219 29.0438 18.4533 29.8514 19.3219 30.4762C20.6324 31.4362 22.2476 32 24 32C26.0267 32 27.8553 31.2533 29.2572 30.0038C29.8819 29.4857 30.4152 28.8457 30.8419 28.1143C31.5733 26.9257 32 25.4933 32 24C32 21.4552 30.8114 19.1848 28.9524 17.7219Z" fill="url(#paint4_linear_407_10618)" fill-opacity="0.64"/>
</mask>
<g mask="url(#mask0_407_10618)">
<g filter="url(#filter5_f_407_10618)">
<path d="M29.6781 14.2631C28.6448 13.4388 27.3328 12.9512 25.9048 12.9512C24.4768 12.9512 23.1416 13.4504 22.0967 14.2979C20.6919 15.4008 19.8096 17.1308 19.8096 19.0464C19.8096 20.1842 20.1347 21.2755 20.6919 22.1811C21.1215 22.8893 21.6788 23.5046 22.3405 23.9806C23.339 24.7121 24.5697 25.1416 25.9048 25.1416C27.4489 25.1416 28.8421 24.5728 29.9103 23.6207C30.3863 23.226 30.7926 22.7384 31.1177 22.1811C31.675 21.2755 32 20.1842 32 19.0464C32 17.1075 31.0945 15.3777 29.6781 14.2631Z" fill="#A9FFDE"/>
</g>
</g>
<g filter="url(#filter6_dii_407_10618)">
<path d="M26.5605 21.2656C26.9659 20.8906 27.5995 20.9158 27.9745 21.3213C28.3491 21.7268 28.3242 22.3595 27.9189 22.7344L23.6591 26.6738C23.2648 27.0385 22.6522 27.0273 22.2724 26.6475L20.2929 24.667C19.9024 24.2765 19.9024 23.6434 20.2929 23.2529C20.6834 22.8624 21.3164 22.8624 21.7069 23.2529L23.0067 24.5518L26.5605 21.2656Z" fill="white"/>
</g>
<path d="M24 16C25.8742 16 27.596 16.6399 28.9521 17.7217C30.8112 19.1845 32 21.4552 32 24C32 24.112 31.996 24.2237 31.9912 24.335C31.9093 21.9016 30.7442 19.7412 28.9521 18.3311C27.596 17.2491 25.8743 16.6084 24 16.6084C22.1258 16.6084 20.3733 17.2637 19.002 18.376C17.2249 19.7712 16.088 21.9314 16.0078 24.3369C16.003 24.225 16 24.1127 16 24C16 21.4857 17.1581 19.2152 19.002 17.7676C20.3734 16.6552 22.1257 16 24 16Z" fill="white"/>
<defs>
<filter id="filter0_dii_407_10618" x="8.93333" y="2.7987" width="4.80033" height="7.46732" filterUnits="userSpaceOnUse" color-interpolation-filters="sRGB">
<feFlood flood-opacity="0" result="BackgroundImageFix"/>
<feColorMatrix in="SourceAlpha" type="matrix" values="0 0 0 0 0 0 0 0 0 0 0 0 0 0 0 0 0 0 127 0" result="hardAlpha"/>
<feOffset dy="0.533333"/>
<feGaussianBlur stdDeviation="0.533333"/>
<feComposite in2="hardAlpha" operator="out"/>
<feColorMatrix type="matrix" values="0 0 0 0 0.337255 0 0 0 0 0.882353 0 0 0 0 0.67451 0 0 0 0.6 0"/>
<feBlend mode="multiply" in2="BackgroundImageFix" result="effect1_dropShadow_407_10618"/>
<feBlend mode="normal" in="SourceGraphic" in2="effect1_dropShadow_407_10618" result="shape"/>
<feColorMatrix in="SourceAlpha" type="matrix" values="0 0 0 0 0 0 0 0 0 0 0 0 0 0 0 0 0 0 127 0" result="hardAlpha"/>
<feOffset dy="-0.533333"/>
<feComposite in2="hardAlpha" operator="arithmetic" k2="-1" k3="1"/>
<feColorMatrix type="matrix" values="0 0 0 0 0.286275 0 0 0 0 0.909804 0 0 0 0 0.647059 0 0 0 1 0"/>
<feBlend mode="normal" in2="shape" result="effect2_innerShadow_407_10618"/>
<feColorMatrix in="SourceAlpha" type="matrix" values="0 0 0 0 0 0 0 0 0 0 0 0 0 0 0 0 0 0 127 0" result="hardAlpha"/>
<feOffset dy="0.533333"/>
<feComposite in2="hardAlpha" operator="arithmetic" k2="-1" k3="1"/>
<feColorMatrix type="matrix" values="0 0 0 0 0.25098 0 0 0 0 0.898039 0 0 0 0 0.643137 0 0 0 1 0"/>
<feBlend mode="normal" in2="effect2_innerShadow_407_10618" result="effect3_innerShadow_407_10618"/>
</filter>
<filter id="filter1_dii_407_10618" x="18.2663" y="2.80065" width="4.80033" height="7.46732" filterUnits="userSpaceOnUse" color-interpolation-filters="sRGB">
<feFlood flood-opacity="0" result="BackgroundImageFix"/>
<feColorMatrix in="SourceAlpha" type="matrix" values="0 0 0 0 0 0 0 0 0 0 0 0 0 0 0 0 0 0 127 0" result="hardAlpha"/>
<feOffset dy="0.533333"/>
<feGaussianBlur stdDeviation="0.533333"/>
<feComposite in2="hardAlpha" operator="out"/>
<feColorMatrix type="matrix" values="0 0 0 0 0.337255 0 0 0 0 0.882353 0 0 0 0 0.67451 0 0 0 0.6 0"/>
<feBlend mode="multiply" in2="BackgroundImageFix" result="effect1_dropShadow_407_10618"/>
<feBlend mode="normal" in="SourceGraphic" in2="effect1_dropShadow_407_10618" result="shape"/>
<feColorMatrix in="SourceAlpha" type="matrix" values="0 0 0 0 0 0 0 0 0 0 0 0 0 0 0 0 0 0 127 0" result="hardAlpha"/>
<feOffset dy="-0.533333"/>
<feComposite in2="hardAlpha" operator="arithmetic" k2="-1" k3="1"/>
<feColorMatrix type="matrix" values="0 0 0 0 0.286275 0 0 0 0 0.909804 0 0 0 0 0.647059 0 0 0 1 0"/>
<feBlend mode="normal" in2="shape" result="effect2_innerShadow_407_10618"/>
<feColorMatrix in="SourceAlpha" type="matrix" values="0 0 0 0 0 0 0 0 0 0 0 0 0 0 0 0 0 0 127 0" result="hardAlpha"/>
<feOffset dy="0.533333"/>
<feComposite in2="hardAlpha" operator="arithmetic" k2="-1" k3="1"/>
<feColorMatrix type="matrix" values="0 0 0 0 0.25098 0 0 0 0 0.898039 0 0 0 0 0.643137 0 0 0 1 0"/>
<feBlend mode="normal" in2="effect2_innerShadow_407_10618" result="effect3_innerShadow_407_10618"/>
</filter>
<filter id="filter2_dii_407_10618" x="7.05848" y="13" width="9.88305" height="4.88305" filterUnits="userSpaceOnUse" color-interpolation-filters="sRGB">
<feFlood flood-opacity="0" result="BackgroundImageFix"/>
<feColorMatrix in="SourceAlpha" type="matrix" values="0 0 0 0 0 0 0 0 0 0 0 0 0 0 0 0 0 0 127 0" result="hardAlpha"/>
<feOffset dy="0.941523"/>
<feGaussianBlur stdDeviation="0.470761"/>
<feComposite in2="hardAlpha" operator="out"/>
<feColorMatrix type="matrix" values="0 0 0 0 0.0823529 0 0 0 0 0.839216 0 0 0 0 0.615686 0 0 0 0.32 0"/>
<feBlend mode="multiply" in2="BackgroundImageFix" result="effect1_dropShadow_407_10618"/>
<feBlend mode="normal" in="SourceGraphic" in2="effect1_dropShadow_407_10618" result="shape"/>
<feColorMatrix in="SourceAlpha" type="matrix" values="0 0 0 0 0 0 0 0 0 0 0 0 0 0 0 0 0 0 127 0" result="hardAlpha"/>
<feOffset dy="-1"/>
<feGaussianBlur stdDeviation="0.5"/>
<feComposite in2="hardAlpha" operator="arithmetic" k2="-1" k3="1"/>
<feColorMatrix type="matrix" values="0 0 0 0 0.77717 0 0 0 0 0.998667 0 0 0 0 0.895302 0 0 0 1 0"/>
<feBlend mode="normal" in2="shape" result="effect2_innerShadow_407_10618"/>
<feColorMatrix in="SourceAlpha" type="matrix" values="0 0 0 0 0 0 0 0 0 0 0 0 0 0 0 0 0 0 127 0" result="hardAlpha"/>
<feOffset dy="1"/>
<feGaussianBlur stdDeviation="0.5"/>
<feComposite in2="hardAlpha" operator="arithmetic" k2="-1" k3="1"/>
<feColorMatrix type="matrix" values="0 0 0 0 1 0 0 0 0 1 0 0 0 0 1 0 0 0 1 0"/>
<feBlend mode="normal" in2="effect2_innerShadow_407_10618" result="effect3_innerShadow_407_10618"/>
</filter>
<filter id="filter3_dii_407_10618" x="7.05848" y="19" width="5.88305" height="4.88305" filterUnits="userSpaceOnUse" color-interpolation-filters="sRGB">
<feFlood flood-opacity="0" result="BackgroundImageFix"/>
<feColorMatrix in="SourceAlpha" type="matrix" values="0 0 0 0 0 0 0 0 0 0 0 0 0 0 0 0 0 0 127 0" result="hardAlpha"/>
<feOffset dy="0.941523"/>
<feGaussianBlur stdDeviation="0.470761"/>
<feComposite in2="hardAlpha" operator="out"/>
<feColorMatrix type="matrix" values="0 0 0 0 0.0823529 0 0 0 0 0.839216 0 0 0 0 0.615686 0 0 0 0.32 0"/>
<feBlend mode="multiply" in2="BackgroundImageFix" result="effect1_dropShadow_407_10618"/>
<feBlend mode="normal" in="SourceGraphic" in2="effect1_dropShadow_407_10618" result="shape"/>
<feColorMatrix in="SourceAlpha" type="matrix" values="0 0 0 0 0 0 0 0 0 0 0 0 0 0 0 0 0 0 127 0" result="hardAlpha"/>
<feOffset dy="-1"/>
<feGaussianBlur stdDeviation="0.5"/>
<feComposite in2="hardAlpha" operator="arithmetic" k2="-1" k3="1"/>
<feColorMatrix type="matrix" values="0 0 0 0 0.77717 0 0 0 0 0.998667 0 0 0 0 0.895302 0 0 0 1 0"/>
<feBlend mode="normal" in2="shape" result="effect2_innerShadow_407_10618"/>
<feColorMatrix in="SourceAlpha" type="matrix" values="0 0 0 0 0 0 0 0 0 0 0 0 0 0 0 0 0 0 127 0" result="hardAlpha"/>
<feOffset dy="1"/>
<feGaussianBlur stdDeviation="0.5"/>
<feComposite in2="hardAlpha" operator="arithmetic" k2="-1" k3="1"/>
<feColorMatrix type="matrix" values="0 0 0 0 1 0 0 0 0 1 0 0 0 0 1 0 0 0 1 0"/>
<feBlend mode="normal" in2="effect2_innerShadow_407_10618" result="effect3_innerShadow_407_10618"/>
</filter>
<filter id="filter4_ii_407_10618" x="14" y="14" width="20" height="20" filterUnits="userSpaceOnUse" color-interpolation-filters="sRGB">
<feFlood flood-opacity="0" result="BackgroundImageFix"/>
<feBlend mode="normal" in="SourceGraphic" in2="BackgroundImageFix" result="shape"/>
<feColorMatrix in="SourceAlpha" type="matrix" values="0 0 0 0 0 0 0 0 0 0 0 0 0 0 0 0 0 0 127 0" result="hardAlpha"/>
<feOffset dy="0.609524"/>
<feComposite in2="hardAlpha" operator="arithmetic" k2="-1" k3="1"/>
<feColorMatrix type="matrix" values="0 0 0 0 1 0 0 0 0 1 0 0 0 0 1 0 0 0 1 0"/>
<feBlend mode="normal" in2="shape" result="effect1_innerShadow_407_10618"/>
<feColorMatrix in="SourceAlpha" type="matrix" values="0 0 0 0 0 0 0 0 0 0 0 0 0 0 0 0 0 0 127 0" result="hardAlpha"/>
<feOffset dy="-0.609524"/>
<feComposite in2="hardAlpha" operator="arithmetic" k2="-1" k3="1"/>
<feColorMatrix type="matrix" values="0 0 0 0 0.258824 0 0 0 0 0.901961 0 0 0 0 0.643137 0 0 0 1 0"/>
<feBlend mode="normal" in2="effect1_innerShadow_407_10618" result="effect2_innerShadow_407_10618"/>
</filter>
<clipPath id="bgblur_0_407_10618_clip_path" transform="translate(-14 -14)"><path d="M28.9524 17.7219C27.5962 16.64 25.8743 16 24 16C22.1257 16 20.3733 16.6552 19.0019 17.7676C17.1581 19.2152 16 21.4857 16 24C16 25.4933 16.4267 26.9257 17.1581 28.1143C17.7219 29.0438 18.4533 29.8514 19.3219 30.4762C20.6324 31.4362 22.2476 32 24 32C26.0267 32 27.8553 31.2533 29.2572 30.0038C29.8819 29.4857 30.4152 28.8457 30.8419 28.1143C31.5733 26.9257 32 25.4933 32 24C32 21.4552 30.8114 19.1848 28.9524 17.7219Z"/>
</clipPath><filter id="filter5_f_407_10618" x="11.6826" y="4.82419" width="28.4444" height="28.4454" filterUnits="userSpaceOnUse" color-interpolation-filters="sRGB">
<feFlood flood-opacity="0" result="BackgroundImageFix"/>
<feBlend mode="normal" in="SourceGraphic" in2="BackgroundImageFix" result="shape"/>
<feGaussianBlur stdDeviation="4.06349" result="effect1_foregroundBlur_407_10618"/>
</filter>
<filter id="filter6_dii_407_10618" x="19.0585" y="20" width="10.1233" height="8.8225" filterUnits="userSpaceOnUse" color-interpolation-filters="sRGB">
<feFlood flood-opacity="0" result="BackgroundImageFix"/>
<feColorMatrix in="SourceAlpha" type="matrix" values="0 0 0 0 0 0 0 0 0 0 0 0 0 0 0 0 0 0 127 0" result="hardAlpha"/>
<feOffset dy="0.941523"/>
<feGaussianBlur stdDeviation="0.470761"/>
<feComposite in2="hardAlpha" operator="out"/>
<feColorMatrix type="matrix" values="0 0 0 0 0.796078 0 0 0 0 0.992157 0 0 0 0 0.900654 0 0 0 1 0"/>
<feBlend mode="multiply" in2="BackgroundImageFix" result="effect1_dropShadow_407_10618"/>
<feBlend mode="normal" in="SourceGraphic" in2="effect1_dropShadow_407_10618" result="shape"/>
<feColorMatrix in="SourceAlpha" type="matrix" values="0 0 0 0 0 0 0 0 0 0 0 0 0 0 0 0 0 0 127 0" result="hardAlpha"/>
<feOffset dy="-1"/>
<feGaussianBlur stdDeviation="0.5"/>
<feComposite in2="hardAlpha" operator="arithmetic" k2="-1" k3="1"/>
<feColorMatrix type="matrix" values="0 0 0 0 0.77717 0 0 0 0 0.998667 0 0 0 0 0.895302 0 0 0 1 0"/>
<feBlend mode="normal" in2="shape" result="effect2_innerShadow_407_10618"/>
<feColorMatrix in="SourceAlpha" type="matrix" values="0 0 0 0 0 0 0 0 0 0 0 0 0 0 0 0 0 0 127 0" result="hardAlpha"/>
<feOffset dy="1"/>
<feGaussianBlur stdDeviation="0.5"/>
<feComposite in2="hardAlpha" operator="arithmetic" k2="-1" k3="1"/>
<feColorMatrix type="matrix" values="0 0 0 0 1 0 0 0 0 1 0 0 0 0 1 0 0 0 1 0"/>
<feBlend mode="normal" in2="effect2_innerShadow_407_10618" result="effect3_innerShadow_407_10618"/>
</filter>
<linearGradient id="paint0_linear_407_10618" x1="16.0005" y1="5.33398" x2="16.0005" y2="29.334" gradientUnits="userSpaceOnUse">
<stop stop-color="#51EAA7"/>
<stop offset="1" stop-color="#11D49C"/>
</linearGradient>
<linearGradient id="paint1_linear_407_10618" x1="10" y1="4.51963" x2="12.9435" y2="7.1719" gradientUnits="userSpaceOnUse">
<stop stop-color="white"/>
<stop offset="1" stop-color="#97FFE5"/>
</linearGradient>
<linearGradient id="paint2_linear_407_10618" x1="19.333" y1="4.52158" x2="22.2765" y2="7.17385" gradientUnits="userSpaceOnUse">
<stop stop-color="white"/>
<stop offset="1" stop-color="#97FFE5"/>
</linearGradient>
<linearGradient id="paint3_linear_407_10618" x1="32" y1="24" x2="16" y2="24" gradientUnits="userSpaceOnUse">
<stop stop-color="#56FFED"/>
<stop offset="1" stop-color="#49C8FE"/>
</linearGradient>
<linearGradient id="paint4_linear_407_10618" x1="32" y1="24" x2="16" y2="24" gradientUnits="userSpaceOnUse">
<stop stop-color="#56FFED"/>
<stop offset="1" stop-color="#14D69D"/>
</linearGradient>
</defs>
</svg>
