<svg width="160" height="90" viewBox="0 0 160 90" fill="none" xmlns="http://www.w3.org/2000/svg">
<ellipse cx="80" cy="75.5999" rx="80" ry="31.2" fill="url(#paint0_linear_9885_21063)"/>
<path d="M52.4 59.6C49.6 58.8 27.2 54.4 20.8 52L59.2 44L105.2 54.8C105.067 55.6 103.92 57.92 102 59.2C100.655 60.097 88.1434 59.8478 76 60C66.4824 60.1193 55.0363 60.4788 52.4 59.6Z" fill="url(#paint1_linear_9885_21063)" fill-opacity="0.8"/>
<path d="M104 46C108 47.6 119.36 50.8 132.8 50.8" stroke="black" stroke-width="1.2" stroke-linecap="round"/>
<path d="M112.742 23.3679L107.013 52.9679C106.358 56.354 103.393 58.7998 99.9444 58.7998H62.5616C57.9599 58.7998 54.5393 54.5422 55.5307 50.0486L62.0612 20.4486C62.7891 17.1492 65.7134 14.7998 69.0921 14.7998H105.673C110.198 14.7998 113.602 18.925 112.742 23.3679Z" fill="url(#paint2_linear_9885_21063)"/>
<path d="M40.3758 23.9355L52.1626 55.9355C52.9736 58.1372 55.0711 59.5999 57.4175 59.5999H99.8893C103.575 59.5999 106.256 56.1002 105.296 52.5413L98.6532 27.917C97.9939 25.4733 95.7775 23.7755 93.2464 23.7755H63.4401C62.2312 23.7755 61.1255 23.0942 60.5819 22.0143L59.3071 19.4819C58.3558 17.5922 56.4207 16.3999 54.3051 16.3999H45.6307C41.7347 16.3999 39.0292 20.2795 40.3758 23.9355Z" fill="url(#paint3_linear_9885_21063)"/>
<path d="M57.7726 42.4248L59.1263 46.1888" stroke="black" stroke-width="1.2" stroke-linecap="round"/>
<path d="M61.157 51.8354L62.5107 55.5994" stroke="black" stroke-width="1.2" stroke-linecap="round"/>
<path d="M64.1844 46.0698L65.5381 49.8338" stroke="black" stroke-width="1.2" stroke-linecap="round"/>
<path d="M93.7516 53.6138C97.7516 55.2138 109.112 58.4138 122.552 58.4138" stroke="black" stroke-width="1.2" stroke-linecap="round"/>
<path d="M47.2 0.399902C50.4163 5.30203 58.7785 14.6978 66.4976 13.0637C76.1464 11.0212 61.0439 5.67135 58.5268 7.75309C56.0098 9.83483 69.4342 17.5573 81.6 19.5999" stroke="#79A2FF" stroke-width="0.8" stroke-linecap="round" stroke-dasharray="1.6 1.6"/>
<path d="M86.0494 15.7817C85.5927 14.1557 83.8277 11.0636 80.4212 11.7038C80.8777 13.3301 82.6424 16.4225 86.0494 15.7817Z" fill="#79A2FF"/>
<path d="M120.978 38.411C119.413 37.506 115.749 36.4551 113.617 39.4916C115.182 40.397 118.845 41.4483 120.978 38.411Z" fill="#79A2FF"/>
<path d="M79.0318 6.53996C78.7036 5.37113 77.4348 3.14852 74.9862 3.6087C75.3143 4.77772 76.5828 7.0006 79.0318 6.53996Z" fill="#79A2FF"/>
<circle cx="103.6" cy="4.7998" r="2.4" fill="#D7F9FF" stroke="#59E5FF" stroke-width="0.8"/>
<circle cx="112.4" cy="4.7998" r="2.4" fill="#D7F9FF" stroke="#59E5FF" stroke-width="0.8"/>
<circle cx="121.2" cy="4.7998" r="2.4" fill="#D7F9FF" stroke="#59E5FF" stroke-width="0.8"/>
<ellipse cx="27.6" cy="58.7998" rx="6.8" ry="4" fill="url(#paint4_linear_9885_21063)" fill-opacity="0.26"/>
<ellipse cx="111.6" cy="69.1997" rx="6.8" ry="4" fill="url(#paint5_linear_9885_21063)" fill-opacity="0.26"/>
<ellipse cx="137.575" cy="58.6996" rx="8.80909" ry="4" transform="rotate(16.207 137.575 58.6996)" fill="url(#paint6_linear_9885_21063)" fill-opacity="0.26"/>
<defs>
<linearGradient id="paint0_linear_9885_21063" x1="80" y1="31.9199" x2="80.4132" y2="79.7599" gradientUnits="userSpaceOnUse">
<stop stop-color="#D9E6FF"/>
<stop offset="1" stop-color="#F2F7FD" stop-opacity="0"/>
</linearGradient>
<linearGradient id="paint1_linear_9885_21063" x1="75.437" y1="59.8825" x2="71.838" y2="44.0308" gradientUnits="userSpaceOnUse">
<stop stop-color="#A5CAFF"/>
<stop offset="1" stop-color="#EFF5FD" stop-opacity="0"/>
</linearGradient>
<linearGradient id="paint2_linear_9885_21063" x1="91.2" y1="14.7998" x2="80.8" y2="57.1998" gradientUnits="userSpaceOnUse">
<stop stop-color="#DCD9F9"/>
<stop offset="1" stop-color="#D9EAFF"/>
</linearGradient>
<linearGradient id="paint3_linear_9885_21063" x1="72.4002" y1="16.3999" x2="72.4002" y2="59.5999" gradientUnits="userSpaceOnUse">
<stop stop-color="#A9A2FF"/>
<stop offset="1" stop-color="#A0BEFF"/>
</linearGradient>
<linearGradient id="paint4_linear_9885_21063" x1="27.6" y1="54.7998" x2="27.6" y2="62.7998" gradientUnits="userSpaceOnUse">
<stop stop-color="#D0E3FF"/>
<stop offset="1" stop-color="#EFF5FD"/>
</linearGradient>
<linearGradient id="paint5_linear_9885_21063" x1="111.6" y1="65.1997" x2="111.6" y2="73.1997" gradientUnits="userSpaceOnUse">
<stop stop-color="#D0E3FF"/>
<stop offset="1" stop-color="#EFF5FD"/>
</linearGradient>
<linearGradient id="paint6_linear_9885_21063" x1="139.242" y1="61.9871" x2="138.72" y2="55.8907" gradientUnits="userSpaceOnUse">
<stop stop-color="#D0E3FF"/>
<stop offset="1" stop-color="#EFF5FD"/>
</linearGradient>
</defs>
</svg>
