<svg xmlns="http://www.w3.org/2000/svg" width="18" height="18" viewBox="0 0 18 18" fill="none">
  <path d="M14.25 6C15.4926 6 16.5 4.99264 16.5 3.75C16.5 2.50736 15.4926 1.5 14.25 1.5C13.0074 1.5 12 2.50736 12 3.75C12 4.99264 13.0074 6 14.25 6Z" stroke="url(#paint0_linear_6433_5609)" stroke-width="1.125" stroke-linecap="round"/>
  <path d="M5.25 9.75H9" stroke="#08021E" stroke-width="1.125" stroke-linecap="round" stroke-linejoin="round"/>
  <path d="M5.25 9.75H9" stroke="black" stroke-opacity="0.2" stroke-width="1.125" stroke-linecap="round" stroke-linejoin="round"/>
  <path d="M5.25 12.75H12" stroke="#08021E" stroke-width="1.125" stroke-linecap="round" stroke-linejoin="round"/>
  <path d="M5.25 12.75H12" stroke="black" stroke-opacity="0.2" stroke-width="1.125" stroke-linecap="round" stroke-linejoin="round"/>
  <path d="M10.5 1.5H6.75C3 1.5 1.5 3 1.5 6.75V11.25C1.5 15 3 16.5 6.75 16.5H11.25C15 16.5 16.5 15 16.5 11.25V7.5" stroke="#08021E" stroke-width="1.125" stroke-linecap="round" stroke-linejoin="round"/>
  <path d="M10.5 1.5H6.75C3 1.5 1.5 3 1.5 6.75V11.25C1.5 15 3 16.5 6.75 16.5H11.25C15 16.5 16.5 15 16.5 11.25V7.5" stroke="black" stroke-opacity="0.2" stroke-width="1.125" stroke-linecap="round" stroke-linejoin="round"/>
  <defs>
    <linearGradient id="paint0_linear_6433_5609" x1="12" y1="3.75" x2="16.5" y2="3.75" gradientUnits="userSpaceOnUse">
      <stop stop-color="#3370FF"/>
      <stop offset="1" stop-color="#7B68FF"/>
    </linearGradient>
  </defs>
</svg>