<svg width="34" height="32" viewBox="0 0 34 32" fill="none" xmlns="http://www.w3.org/2000/svg">
<rect width="28" height="27" rx="8" fill="url(#paint0_linear_430_14993)"/>
<rect y="2" width="28" height="26" rx="7" fill="url(#paint1_linear_430_14993)"/>
<foreignObject x="13.8311" y="9.54688" width="22.7939" height="23.5488"><div xmlns="http://www.w3.org/1999/xhtml" style="backdrop-filter:blur(2px);clip-path:url(#bgblur_0_430_14993_clip_path);height:100%;width:100%"></div></foreignObject><path data-figma-bg-blur-radius="4" d="M25.7589 14.8598C26.9667 13.5321 29.0222 13.4349 30.35 14.6427L31.3114 15.5174C32.639 16.7253 32.7363 18.7808 31.5285 20.1085L24.6967 27.6183C24.1321 28.2388 23.3487 28.6169 22.5116 28.6735L20.0178 28.8419C19.0257 28.909 18.1772 28.1372 18.1504 27.1432L18.082 24.6439C18.0595 23.8052 18.3626 22.9903 18.9271 22.3696L25.7589 14.8598Z" fill="#D4FFE8" fill-opacity="0.5" stroke="url(#paint2_linear_430_14993)" stroke-width="0.5"/>
<path d="M6.48 20C5.88267 20 5.456 19.8827 5.2 19.648C4.944 19.4133 4.816 19.0773 4.816 18.64C4.816 18.4267 4.832 18.064 4.864 17.552C4.896 17.0293 4.93867 16.4373 4.992 15.776C5.04533 15.1147 5.09867 14.416 5.152 13.68C5.20533 12.944 5.25867 12.2507 5.312 11.6C5.36533 10.9493 5.408 10.3787 5.44 9.888C5.472 9.39733 5.488 9.06133 5.488 8.88C5.488 8.72 5.57333 8.64 5.744 8.64H11.376C11.44 8.64 11.4987 8.656 11.552 8.688C11.6053 8.72 11.632 8.77867 11.632 8.864L11.568 9.808C11.5467 10.128 11.456 10.3893 11.296 10.592C11.1467 10.784 10.832 10.88 10.352 10.88H8.144L7.984 13.136H10.256C10.32 13.136 10.3787 13.152 10.432 13.184C10.4853 13.216 10.512 13.2747 10.512 13.36L10.448 14.304C10.4267 14.624 10.336 14.8853 10.176 15.088C10.0267 15.28 9.712 15.376 9.232 15.376H7.84L7.664 17.76H11.184C11.248 17.76 11.3067 17.7813 11.36 17.824C11.4133 17.856 11.44 17.9093 11.44 17.984L11.376 18.928C11.3547 19.248 11.264 19.5093 11.104 19.712C10.9547 19.904 10.64 20 10.16 20H6.48ZM18.1276 18.592C18.1276 18.3573 18.1436 18.0533 18.1756 17.68C18.2183 17.296 18.2556 16.896 18.2876 16.48C18.3303 16.0533 18.3676 15.6427 18.3996 15.248C18.4423 14.8533 18.4636 14.5227 18.4636 14.256C18.4636 13.9787 18.3943 13.7333 18.2556 13.52C18.1276 13.296 17.8716 13.184 17.4876 13.184C17.1143 13.184 16.805 13.2747 16.5596 13.456C16.3143 13.6373 16.1063 13.968 15.9356 14.448C15.7756 14.928 15.6423 15.5893 15.5356 16.432C15.429 17.2747 15.3276 18.3573 15.2316 19.68C15.221 19.808 15.1943 19.8933 15.1516 19.936C15.109 19.9787 15.0183 20 14.8796 20H14.3036C13.973 20 13.701 19.968 13.4876 19.904C13.285 19.8293 13.1196 19.728 12.9916 19.6C12.8743 19.472 12.789 19.3173 12.7356 19.136C12.693 18.944 12.6716 18.7253 12.6716 18.48C12.6716 18.32 12.677 18.096 12.6876 17.808C12.709 17.5093 12.741 17.104 12.7836 16.592C12.8263 16.0693 12.8743 15.4133 12.9276 14.624C12.9916 13.824 13.0663 12.8373 13.1516 11.664C13.1623 11.4293 13.189 11.2907 13.2316 11.248C13.2636 11.216 13.349 11.2 13.4876 11.2H14.1116C14.4316 11.2 14.693 11.2373 14.8956 11.312C15.109 11.3867 15.2796 11.488 15.4076 11.616C15.5356 11.7333 15.6263 11.8773 15.6796 12.048C15.733 12.208 15.765 12.3733 15.7756 12.544C16.1063 11.9787 16.485 11.5893 16.9116 11.376C17.3383 11.152 17.8716 11.04 18.5116 11.04C18.9596 11.04 19.349 11.088 19.6796 11.184C20.0103 11.28 20.2823 11.4453 20.4956 11.68C20.7196 11.904 20.885 12.2027 20.9916 12.576C21.0983 12.9387 21.1516 13.392 21.1516 13.936C21.1516 14.1067 21.141 14.352 21.1196 14.672C21.0983 14.992 21.0716 15.344 21.0396 15.728C21.0076 16.1013 20.9703 16.496 20.9276 16.912C20.8956 17.3173 20.8636 17.696 20.8316 18.048C20.7996 18.4 20.773 18.7093 20.7516 18.976C20.7303 19.2427 20.7196 19.4187 20.7196 19.504C20.7196 19.7387 20.693 19.8827 20.6396 19.936C20.5863 19.9787 20.469 20 20.2876 20H19.7756C19.4343 20 19.157 19.968 18.9436 19.904C18.7303 19.84 18.565 19.7493 18.4476 19.632C18.3303 19.5147 18.245 19.3707 18.1916 19.2C18.149 19.0187 18.1276 18.816 18.1276 18.592Z" fill="white"/>
<defs>
<clipPath id="bgblur_0_430_14993_clip_path" transform="translate(-13.8311 -9.54688)"><path d="M25.7589 14.8598C26.9667 13.5321 29.0222 13.4349 30.35 14.6427L31.3114 15.5174C32.639 16.7253 32.7363 18.7808 31.5285 20.1085L24.6967 27.6183C24.1321 28.2388 23.3487 28.6169 22.5116 28.6735L20.0178 28.8419C19.0257 28.909 18.1772 28.1372 18.1504 27.1432L18.082 24.6439C18.0595 23.8052 18.3626 22.9903 18.9271 22.3696L25.7589 14.8598Z"/>
</clipPath><linearGradient id="paint0_linear_430_14993" x1="2.89114" y1="27" x2="25.1843" y2="0.0624493" gradientUnits="userSpaceOnUse">
<stop stop-color="#06FD9A"/>
<stop offset="1" stop-color="#00DE7A"/>
</linearGradient>
<linearGradient id="paint1_linear_430_14993" x1="14" y1="2" x2="16.8943" y2="28.4802" gradientUnits="userSpaceOnUse">
<stop stop-color="#05FDA6"/>
<stop offset="1" stop-color="#04D981"/>
</linearGradient>
<linearGradient id="paint2_linear_430_14993" x1="21.8525" y1="19.5254" x2="27.2521" y2="24.4374" gradientUnits="userSpaceOnUse">
<stop stop-color="#B6FFD6"/>
<stop offset="1" stop-color="#34EF8E"/>
</linearGradient>
</defs>
</svg>
