<svg xmlns="http://www.w3.org/2000/svg" width="24" height="24" viewBox="0 0 24 24" fill="none">
  <path d="M11 21H6.00003C5.4696 21 4.96089 20.7893 4.58582 20.4142C4.21074 20.0391 4.00003 19.5304 4.00003 19V7C4.00003 6.46957 4.21074 5.96086 4.58582 5.58579C4.96089 5.21071 5.4696 5 6.00003 5H18C18.5305 5 19.0392 5.21071 19.4142 5.58579C19.7893 5.96086 20 6.46957 20 7V10.5M16 3V7M8.00003 3V7M4.00003 11H15" stroke="#08021E" stroke-width="1.8" stroke-linecap="round" stroke-linejoin="round"/>
  <path d="M11 21H6.00003C5.4696 21 4.96089 20.7893 4.58582 20.4142C4.21074 20.0391 4.00003 19.5304 4.00003 19V7C4.00003 6.46957 4.21074 5.96086 4.58582 5.58579C4.96089 5.21071 5.4696 5 6.00003 5H18C18.5305 5 19.0392 5.21071 19.4142 5.58579C19.7893 5.96086 20 6.46957 20 7V10.5M16 3V7M8.00003 3V7M4.00003 11H15" stroke="black" stroke-opacity="0.2" stroke-width="1.8" stroke-linecap="round" stroke-linejoin="round"/>
  <path d="M17.425 14.65C17.6619 14.1762 18.3381 14.1762 18.575 14.65L19.4042 16.3083C19.4664 16.4327 19.5673 16.5336 19.6917 16.5958L21.35 17.425C21.8238 17.6619 21.8238 18.3381 21.35 18.575L19.6917 19.4042C19.5673 19.4664 19.4664 19.5673 19.4042 19.6917L18.575 21.35C18.3381 21.8238 17.6619 21.8238 17.425 21.35L16.5958 19.6917C16.5336 19.5673 16.4327 19.4664 16.3083 19.4042L14.65 18.575C14.1762 18.3381 14.1762 17.6619 14.65 17.425L16.3083 16.5958C16.4327 16.5336 16.5336 16.4327 16.5958 16.3083L17.425 14.65Z" stroke="#7A71FF" stroke-width="1.8" stroke-linecap="round" stroke-linejoin="round"/>
</svg>