<svg xmlns="http://www.w3.org/2000/svg" width="24" height="24" viewBox="0 0 24 24" fill="none">
  <path d="M6 11H9C9.53043 11 10.0391 11.2107 10.4142 11.5858C10.7893 11.9609 11 12.4696 11 13C11 13.5304 10.7893 14.0391 10.4142 14.4142C10.0391 14.7893 9.53043 15 9 15H5C4.46957 15 3.96086 15.2107 3.58579 15.5858C3.21071 15.9609 3 16.4696 3 17C3 17.5304 3.21071 18.0391 3.58579 18.4142C3.96086 18.7893 4.46957 19 5 19H17.5" stroke="#00BAED" stroke-width="2" stroke-linecap="round" stroke-linejoin="round"/>
  <path d="M16 7H20M20 17V5C20 3.879 19.121 3 18 3C16.879 3 16 3.879 16 5V17L18 19L20 17Z" stroke="#08021E" stroke-width="2" stroke-linecap="round" stroke-linejoin="round"/>
  <path d="M16 7H20M20 17V5C20 3.879 19.121 3 18 3C16.879 3 16 3.879 16 5V17L18 19L20 17Z" stroke="black" stroke-opacity="0.2" stroke-width="2" stroke-linecap="round" stroke-linejoin="round"/>
</svg>