<svg xmlns="http://www.w3.org/2000/svg" width="24" height="24" viewBox="0 0 24 24" fill="none">
  <path d="M16.1901 2H7.82006C4.17006 2 2.00006 4.17 2.00006 7.81V16.18C2.00006 19.82 4.17006 21.99 7.81006 21.99H16.1801C19.8201 21.99 21.9901 19.82 21.9901 16.18V7.81C22.0001 4.17 19.8301 2 16.1901 2Z" fill="url(#paint0_linear_30905_12524)"/>
  <g filter="url(#filter0_dii_30905_12524)">
    <path d="M13.7003 14.994C13.7003 15.211 13.6443 15.3755 13.5323 15.4875C13.4203 15.5995 13.2558 15.6555 13.0388 15.6555H13.0178C12.8008 15.6555 12.6363 15.5995 12.5243 15.4875C12.4123 15.3755 12.3563 15.211 12.3563 14.994V10.752C12.3563 10.535 12.4123 10.3705 12.5243 10.2585C12.6363 10.1465 12.8008 10.0905 13.0178 10.0905H13.0388C13.2558 10.0905 13.4203 10.1465 13.5323 10.2585C13.6443 10.3705 13.7003 10.535 13.7003 10.752V14.994ZM12.3563 13.9335C12.3563 13.2335 12.4858 12.579 12.7448 11.97C13.0038 11.361 13.3608 10.878 13.8158 10.521C14.2708 10.157 14.7783 9.97498 15.3383 9.97498C15.6953 9.97498 16.0278 10.0765 16.3358 10.2795C16.6508 10.4825 16.9028 10.78 17.0918 11.172C17.2878 11.557 17.3858 12.0085 17.3858 12.5265V14.994C17.3858 15.211 17.3298 15.3755 17.2178 15.4875C17.1058 15.5995 16.9413 15.6555 16.7243 15.6555H16.7033C16.4863 15.6555 16.3218 15.5995 16.2098 15.4875C16.0978 15.3755 16.0418 15.211 16.0418 14.994V12.5265C16.0418 12.2395 15.9893 12.005 15.8843 11.823C15.7793 11.634 15.6463 11.4975 15.4853 11.4135C15.3243 11.3225 15.1563 11.277 14.9813 11.277C14.7293 11.277 14.5088 11.3295 14.3198 11.4345C14.1308 11.5395 13.9803 11.718 13.8683 11.97C13.7563 12.222 13.7003 12.5615 13.7003 12.9885L12.3563 13.9335Z" fill="white"/>
  </g>
  <g filter="url(#filter1_dii_30905_12524)">
    <path d="M7.5465 15.6555C7.1825 15.6555 6.9025 15.561 6.7065 15.372C6.5175 15.176 6.423 14.896 6.423 14.532V8.9985C6.423 8.6345 6.5175 8.358 6.7065 8.169C6.9025 7.973 7.1825 7.875 7.5465 7.875H7.83V15.6555H7.5465ZM10.497 7.875C10.714 7.875 10.8785 7.9345 10.9905 8.0535C11.1095 8.1655 11.169 8.33 11.169 8.547V8.568C11.169 8.785 11.1095 8.953 10.9905 9.072C10.8785 9.184 10.714 9.24 10.497 9.24H7.662V7.875H10.497ZM10.497 14.2905C10.714 14.2905 10.8785 14.35 10.9905 14.469C11.1095 14.581 11.169 14.7455 11.169 14.9625V14.9835C11.169 15.2005 11.1095 15.3685 10.9905 15.4875C10.8785 15.5995 10.714 15.6555 10.497 15.6555H7.662V14.2905H10.497ZM10.203 11.13C10.406 11.13 10.56 11.1825 10.665 11.2875C10.77 11.3925 10.8225 11.5465 10.8225 11.7495V11.7705C10.8225 11.9665 10.77 12.1205 10.665 12.2325C10.56 12.3375 10.406 12.39 10.203 12.39H7.662V11.13H10.203Z" fill="white"/>
  </g>
  <defs>
    <filter id="filter0_dii_30905_12524" x="11.6501" y="9.22498" width="6.44179" height="7.84283" filterUnits="userSpaceOnUse" color-interpolation-filters="sRGB">
      <feFlood flood-opacity="0" result="BackgroundImageFix"/>
      <feColorMatrix in="SourceAlpha" type="matrix" values="0 0 0 0 0 0 0 0 0 0 0 0 0 0 0 0 0 0 127 0" result="hardAlpha"/>
      <feOffset dy="0.706142"/>
      <feGaussianBlur stdDeviation="0.353071"/>
      <feComposite in2="hardAlpha" operator="out"/>
      <feColorMatrix type="matrix" values="0 0 0 0 0.812275 0 0 0 0 0.868193 0 0 0 0 1 0 0 0 1 0"/>
      <feBlend mode="multiply" in2="BackgroundImageFix" result="effect1_dropShadow_30905_12524"/>
      <feBlend mode="normal" in="SourceGraphic" in2="effect1_dropShadow_30905_12524" result="shape"/>
      <feColorMatrix in="SourceAlpha" type="matrix" values="0 0 0 0 0 0 0 0 0 0 0 0 0 0 0 0 0 0 127 0" result="hardAlpha"/>
      <feOffset dy="-0.75"/>
      <feGaussianBlur stdDeviation="0.375"/>
      <feComposite in2="hardAlpha" operator="arithmetic" k2="-1" k3="1"/>
      <feColorMatrix type="matrix" values="0 0 0 0 0.686275 0 0 0 0 0.780392 0 0 0 0 1 0 0 0 1 0"/>
      <feBlend mode="normal" in2="shape" result="effect2_innerShadow_30905_12524"/>
      <feColorMatrix in="SourceAlpha" type="matrix" values="0 0 0 0 0 0 0 0 0 0 0 0 0 0 0 0 0 0 127 0" result="hardAlpha"/>
      <feOffset dy="0.75"/>
      <feGaussianBlur stdDeviation="0.375"/>
      <feComposite in2="hardAlpha" operator="arithmetic" k2="-1" k3="1"/>
      <feColorMatrix type="matrix" values="0 0 0 0 1 0 0 0 0 1 0 0 0 0 1 0 0 0 1 0"/>
      <feBlend mode="normal" in2="effect2_innerShadow_30905_12524" result="effect3_innerShadow_30905_12524"/>
    </filter>
    <filter id="filter1_dii_30905_12524" x="5.71686" y="7.125" width="6.15829" height="9.9428" filterUnits="userSpaceOnUse" color-interpolation-filters="sRGB">
      <feFlood flood-opacity="0" result="BackgroundImageFix"/>
      <feColorMatrix in="SourceAlpha" type="matrix" values="0 0 0 0 0 0 0 0 0 0 0 0 0 0 0 0 0 0 127 0" result="hardAlpha"/>
      <feOffset dy="0.706142"/>
      <feGaussianBlur stdDeviation="0.353071"/>
      <feComposite in2="hardAlpha" operator="out"/>
      <feColorMatrix type="matrix" values="0 0 0 0 0.812275 0 0 0 0 0.868193 0 0 0 0 1 0 0 0 1 0"/>
      <feBlend mode="multiply" in2="BackgroundImageFix" result="effect1_dropShadow_30905_12524"/>
      <feBlend mode="normal" in="SourceGraphic" in2="effect1_dropShadow_30905_12524" result="shape"/>
      <feColorMatrix in="SourceAlpha" type="matrix" values="0 0 0 0 0 0 0 0 0 0 0 0 0 0 0 0 0 0 127 0" result="hardAlpha"/>
      <feOffset dy="-0.75"/>
      <feGaussianBlur stdDeviation="0.375"/>
      <feComposite in2="hardAlpha" operator="arithmetic" k2="-1" k3="1"/>
      <feColorMatrix type="matrix" values="0 0 0 0 0.686275 0 0 0 0 0.780392 0 0 0 0 1 0 0 0 1 0"/>
      <feBlend mode="normal" in2="shape" result="effect2_innerShadow_30905_12524"/>
      <feColorMatrix in="SourceAlpha" type="matrix" values="0 0 0 0 0 0 0 0 0 0 0 0 0 0 0 0 0 0 127 0" result="hardAlpha"/>
      <feOffset dy="0.75"/>
      <feGaussianBlur stdDeviation="0.375"/>
      <feComposite in2="hardAlpha" operator="arithmetic" k2="-1" k3="1"/>
      <feColorMatrix type="matrix" values="0 0 0 0 1 0 0 0 0 1 0 0 0 0 1 0 0 0 1 0"/>
      <feBlend mode="normal" in2="effect2_innerShadow_30905_12524" result="effect3_innerShadow_30905_12524"/>
    </filter>
    <linearGradient id="paint0_linear_30905_12524" x1="11.9951" y1="2" x2="11.9951" y2="21.99" gradientUnits="userSpaceOnUse">
      <stop stop-color="#BACEFF"/>
      <stop offset="1" stop-color="#86AAFF"/>
    </linearGradient>
  </defs>
</svg>