<svg width="32" height="32" viewBox="0 0 32 32" fill="none" xmlns="http://www.w3.org/2000/svg">
<mask id="mask0_408_10915" style="mask-type:alpha" maskUnits="userSpaceOnUse" x="0" y="0" width="32" height="32">
<rect width="32" height="32" fill="#D9D9D9"/>
</mask>
<g mask="url(#mask0_408_10915)">
<g filter="url(#filter0_ii_408_10915)">
<path d="M9.98047 4.86719C9.96813 4.96765 9.95996 5.07002 9.95996 5.17383V6.42676C9.95996 7.81342 11.0801 8.93359 12.4668 8.93359H18.7461C20.1328 8.93359 21.2529 7.81342 21.2529 6.42676V5.17383C21.2539 5.07004 21.2468 4.96763 21.2354 4.86719H21.2666C24.5465 4.86729 27.2262 7.53388 27.2129 10.8271V23.373C27.2129 26.653 24.5463 29.333 21.2529 29.333H9.95996C6.67996 29.333 4 26.653 4 23.373V10.8271C4 7.54715 6.66663 4.86719 9.95996 4.86719H9.98047Z" fill="url(#paint0_linear_408_10915)"/>
</g>
<g filter="url(#filter1_f_408_10915)">
<path d="M21.2354 4.86523C21.2469 4.96577 21.2539 5.06799 21.2529 5.17188V6.42578C21.2527 7.81227 20.1326 8.93164 18.7461 8.93164H12.4658C11.0794 8.93149 9.9592 7.81217 9.95898 6.42578V5.17188C9.95899 5.06795 9.9681 4.9658 9.98047 4.86523H21.2354Z" fill="#63B5FF"/>
</g>
<g filter="url(#filter2_dii_408_10915)">
<path d="M18.7466 2.66602H12.48C11.0933 2.66602 9.95996 3.78602 9.95996 5.17268V6.42602C9.95996 7.81268 11.08 8.93268 12.4666 8.93268H18.7466C20.1333 8.93268 21.2533 7.81268 21.2533 6.42602V5.17268C21.2666 3.78602 20.1333 2.66602 18.7466 2.66602Z" fill="url(#paint1_linear_408_10915)" fill-opacity="0.32" shape-rendering="crispEdges"/>
</g>
<g filter="url(#filter3_dii_408_10915)">
<path d="M17.1176 14H8.88235C8.4 14 8 13.5467 8 13C8 12.4533 8.4 12 8.88235 12H13H17.1176C17.6 12 18 12.4533 18 13C18 13.5467 17.6 14 17.1176 14Z" fill="white"/>
</g>
<g filter="url(#filter4_dii_408_10915)">
<path d="M13.1818 20H8.81818C8.37091 20 8 19.5467 8 19C8 18.4533 8.37091 18 8.81818 18H13.1818C13.6291 18 14 18.4533 14 19C14 19.5467 13.6291 20 13.1818 20Z" fill="white"/>
</g>
<g filter="url(#filter5_f_408_10915)">
<path d="M22.667 14.666C24.359 14.6661 25.9262 15.1885 27.2129 16.0859V23.3721C27.2129 26.6521 24.5463 29.332 21.2529 29.332H18.2607C18.1688 29.2704 18.0775 29.2079 17.9883 29.1426C17.1198 28.5178 16.389 27.7097 15.8252 26.7803C15.0938 25.5917 14.667 24.1593 14.667 22.666C14.667 20.1517 15.8251 17.8812 17.6689 16.4336C19.0403 15.3213 20.7928 14.666 22.667 14.666Z" fill="#62B4FF"/>
</g>
<foreignObject x="12.666" y="12.666" width="20" height="20"><div xmlns="http://www.w3.org/1999/xhtml" style="backdrop-filter:blur(1px);clip-path:url(#bgblur_0_408_10915_clip_path);height:100%;width:100%"></div></foreignObject><g filter="url(#filter6_ii_408_10915)" data-figma-bg-blur-radius="2">
<path d="M27.6184 16.3879C26.2622 15.306 24.5403 14.666 22.666 14.666C20.7917 14.666 19.0394 15.3212 17.6679 16.4336C15.8241 17.8812 14.666 20.1517 14.666 22.666C14.666 24.1593 15.0927 25.5917 15.8241 26.7803C16.3879 27.7098 17.1193 28.5174 17.9879 29.1422C19.2984 30.1022 20.9136 30.666 22.666 30.666C24.6927 30.666 26.5213 29.9194 27.9232 28.6698C28.5479 28.1517 29.0812 27.5117 29.5079 26.7803C30.2393 25.5917 30.666 24.1593 30.666 22.666C30.666 20.1213 29.4774 17.8508 27.6184 16.3879Z" fill="url(#paint2_linear_408_10915)" fill-opacity="0.12"/>
</g>
<mask id="mask1_408_10915" style="mask-type:alpha" maskUnits="userSpaceOnUse" x="15" y="15" width="16" height="16">
<path d="M27.9524 16.7219C26.5962 15.64 24.8743 15 23 15C21.1257 15 19.3733 15.6552 18.0019 16.7676C16.1581 18.2152 15 20.4857 15 23C15 24.4933 15.4267 25.9257 16.1581 27.1143C16.7219 28.0438 17.4533 28.8514 18.3219 29.4762C19.6324 30.4362 21.2476 31 23 31C25.0267 31 26.8553 30.2533 28.2572 29.0038C28.8819 28.4857 29.4152 27.8457 29.8419 27.1143C30.5733 25.9257 31 24.4933 31 23C31 20.4552 29.8114 18.1848 27.9524 16.7219Z" fill="url(#paint3_linear_408_10915)" fill-opacity="0.64"/>
</mask>
<g mask="url(#mask1_408_10915)">
<g filter="url(#filter7_f_408_10915)">
<path d="M28.6781 13.2631C27.6448 12.4388 26.3328 11.9512 24.9048 11.9512C23.4768 11.9512 22.1416 12.4504 21.0967 13.2979C19.6919 14.4008 18.8096 16.1308 18.8096 18.0464C18.8096 19.1842 19.1347 20.2755 19.6919 21.1811C20.1215 21.8893 20.6788 22.5046 21.3405 22.9806C22.339 23.7121 23.5697 24.1416 24.9048 24.1416C26.4489 24.1416 27.8421 23.5728 28.9103 22.6207C29.3863 22.226 29.7926 21.7384 30.1177 21.1811C30.675 20.2755 31 19.1842 31 18.0464C31 16.1075 30.0945 14.3777 28.6781 13.2631Z" fill="#82FFAE"/>
</g>
</g>
<g filter="url(#filter8_dii_408_10915)">
<path d="M22.4601 19.4138C22.6086 18.8621 23.3914 18.8621 23.5399 19.4138L24.1024 21.503C24.1543 21.6954 24.3046 21.8457 24.497 21.8976L26.5862 22.4601C27.1379 22.6086 27.1379 23.3914 26.5862 23.5399L24.497 24.1024C24.3046 24.1543 24.1543 24.3046 24.1024 24.497L23.5399 26.5862C23.3914 27.1379 22.6086 27.1379 22.4601 26.5862L21.8976 24.497C21.8457 24.3046 21.6954 24.1543 21.503 24.1024L19.4138 23.5399C18.8621 23.3914 18.8621 22.6086 19.4138 22.4601L21.503 21.8976C21.6954 21.8457 21.8457 21.6954 21.8976 21.503L22.4601 19.4138Z" fill="white"/>
</g>
<path d="M22.666 14.666C24.5402 14.666 26.262 15.3059 27.6182 16.3877C29.4772 17.8506 30.666 20.1213 30.666 22.666C30.666 22.7781 30.662 22.8897 30.6572 23.001C30.5753 20.5676 29.4102 18.4072 27.6182 16.9971C26.262 15.9152 24.5403 15.2744 22.666 15.2744C20.7918 15.2744 19.0394 15.9297 17.668 17.042C15.8909 18.4372 14.754 20.5974 14.6738 23.0029C14.669 22.891 14.666 22.7787 14.666 22.666C14.666 20.1517 15.8242 17.8812 17.668 16.4336C19.0394 15.3212 20.7917 14.666 22.666 14.666Z" fill="white"/>
</g>
<defs>
<filter id="filter0_ii_408_10915" x="4" y="4.76719" width="23.2129" height="24.6648" filterUnits="userSpaceOnUse" color-interpolation-filters="sRGB">
<feFlood flood-opacity="0" result="BackgroundImageFix"/>
<feBlend mode="normal" in="SourceGraphic" in2="BackgroundImageFix" result="shape"/>
<feColorMatrix in="SourceAlpha" type="matrix" values="0 0 0 0 0 0 0 0 0 0 0 0 0 0 0 0 0 0 127 0" result="hardAlpha"/>
<feOffset dy="0.5"/>
<feGaussianBlur stdDeviation="0.05"/>
<feComposite in2="hardAlpha" operator="arithmetic" k2="-1" k3="1"/>
<feColorMatrix type="matrix" values="0 0 0 0 0.304819 0 0 0 0 0.884136 0 0 0 0 1 0 0 0 1 0"/>
<feBlend mode="normal" in2="shape" result="effect1_innerShadow_408_10915"/>
<feColorMatrix in="SourceAlpha" type="matrix" values="0 0 0 0 0 0 0 0 0 0 0 0 0 0 0 0 0 0 127 0" result="hardAlpha"/>
<feOffset dy="-0.5"/>
<feGaussianBlur stdDeviation="0.05"/>
<feComposite in2="hardAlpha" operator="arithmetic" k2="-1" k3="1"/>
<feColorMatrix type="matrix" values="0 0 0 0 0.202261 0 0 0 0 0.616278 0 0 0 0 1 0 0 0 1 0"/>
<feBlend mode="normal" in2="effect1_innerShadow_408_10915" result="effect2_innerShadow_408_10915"/>
</filter>
<filter id="filter1_f_408_10915" x="7.95898" y="2.86523" width="15.2939" height="8.06641" filterUnits="userSpaceOnUse" color-interpolation-filters="sRGB">
<feFlood flood-opacity="0" result="BackgroundImageFix"/>
<feBlend mode="normal" in="SourceGraphic" in2="BackgroundImageFix" result="shape"/>
<feGaussianBlur stdDeviation="1" result="effect1_foregroundBlur_408_10915"/>
</filter>
<filter id="filter2_dii_408_10915" x="8.89329" y="2.13268" width="13.4263" height="8.40091" filterUnits="userSpaceOnUse" color-interpolation-filters="sRGB">
<feFlood flood-opacity="0" result="BackgroundImageFix"/>
<feColorMatrix in="SourceAlpha" type="matrix" values="0 0 0 0 0 0 0 0 0 0 0 0 0 0 0 0 0 0 127 0" result="hardAlpha"/>
<feOffset dy="0.533333"/>
<feGaussianBlur stdDeviation="0.533333"/>
<feComposite in2="hardAlpha" operator="out"/>
<feColorMatrix type="matrix" values="0 0 0 0 0.269062 0 0 0 0 0.650774 0 0 0 0 1 0 0 0 0.64 0"/>
<feBlend mode="multiply" in2="BackgroundImageFix" result="effect1_dropShadow_408_10915"/>
<feBlend mode="normal" in="SourceGraphic" in2="effect1_dropShadow_408_10915" result="shape"/>
<feColorMatrix in="SourceAlpha" type="matrix" values="0 0 0 0 0 0 0 0 0 0 0 0 0 0 0 0 0 0 127 0" result="hardAlpha"/>
<feOffset dy="-0.533333"/>
<feComposite in2="hardAlpha" operator="arithmetic" k2="-1" k3="1"/>
<feColorMatrix type="matrix" values="0 0 0 0 0.616718 0 0 0 0 0.940817 0 0 0 0 1 0 0 0 1 0"/>
<feBlend mode="normal" in2="shape" result="effect2_innerShadow_408_10915"/>
<feColorMatrix in="SourceAlpha" type="matrix" values="0 0 0 0 0 0 0 0 0 0 0 0 0 0 0 0 0 0 127 0" result="hardAlpha"/>
<feOffset dy="0.533333"/>
<feComposite in2="hardAlpha" operator="arithmetic" k2="-1" k3="1"/>
<feColorMatrix type="matrix" values="0 0 0 0 0.388235 0 0 0 0 0.87451 0 0 0 0 0.952941 0 0 0 1 0"/>
<feBlend mode="normal" in2="effect2_innerShadow_408_10915" result="effect3_innerShadow_408_10915"/>
</filter>
<filter id="filter3_dii_408_10915" x="7" y="11" width="12" height="5" filterUnits="userSpaceOnUse" color-interpolation-filters="sRGB">
<feFlood flood-opacity="0" result="BackgroundImageFix"/>
<feColorMatrix in="SourceAlpha" type="matrix" values="0 0 0 0 0 0 0 0 0 0 0 0 0 0 0 0 0 0 127 0" result="hardAlpha"/>
<feOffset dy="1"/>
<feGaussianBlur stdDeviation="0.5"/>
<feComposite in2="hardAlpha" operator="out"/>
<feColorMatrix type="matrix" values="0 0 0 0 0.270588 0 0 0 0 0.65098 0 0 0 0 1 0 0 0 0.48 0"/>
<feBlend mode="multiply" in2="BackgroundImageFix" result="effect1_dropShadow_408_10915"/>
<feBlend mode="normal" in="SourceGraphic" in2="effect1_dropShadow_408_10915" result="shape"/>
<feColorMatrix in="SourceAlpha" type="matrix" values="0 0 0 0 0 0 0 0 0 0 0 0 0 0 0 0 0 0 127 0" result="hardAlpha"/>
<feOffset dy="-1"/>
<feGaussianBlur stdDeviation="0.5"/>
<feComposite in2="hardAlpha" operator="arithmetic" k2="-1" k3="1"/>
<feColorMatrix type="matrix" values="0 0 0 0 0.691275 0 0 0 0 0.853486 0 0 0 0 1 0 0 0 1 0"/>
<feBlend mode="normal" in2="shape" result="effect2_innerShadow_408_10915"/>
<feColorMatrix in="SourceAlpha" type="matrix" values="0 0 0 0 0 0 0 0 0 0 0 0 0 0 0 0 0 0 127 0" result="hardAlpha"/>
<feOffset dy="1"/>
<feGaussianBlur stdDeviation="0.5"/>
<feComposite in2="hardAlpha" operator="arithmetic" k2="-1" k3="1"/>
<feColorMatrix type="matrix" values="0 0 0 0 1 0 0 0 0 1 0 0 0 0 1 0 0 0 1 0"/>
<feBlend mode="normal" in2="effect2_innerShadow_408_10915" result="effect3_innerShadow_408_10915"/>
</filter>
<filter id="filter4_dii_408_10915" x="7" y="17" width="8" height="5" filterUnits="userSpaceOnUse" color-interpolation-filters="sRGB">
<feFlood flood-opacity="0" result="BackgroundImageFix"/>
<feColorMatrix in="SourceAlpha" type="matrix" values="0 0 0 0 0 0 0 0 0 0 0 0 0 0 0 0 0 0 127 0" result="hardAlpha"/>
<feOffset dy="1"/>
<feGaussianBlur stdDeviation="0.5"/>
<feComposite in2="hardAlpha" operator="out"/>
<feColorMatrix type="matrix" values="0 0 0 0 0.270588 0 0 0 0 0.65098 0 0 0 0 1 0 0 0 0.48 0"/>
<feBlend mode="multiply" in2="BackgroundImageFix" result="effect1_dropShadow_408_10915"/>
<feBlend mode="normal" in="SourceGraphic" in2="effect1_dropShadow_408_10915" result="shape"/>
<feColorMatrix in="SourceAlpha" type="matrix" values="0 0 0 0 0 0 0 0 0 0 0 0 0 0 0 0 0 0 127 0" result="hardAlpha"/>
<feOffset dy="-1"/>
<feGaussianBlur stdDeviation="0.5"/>
<feComposite in2="hardAlpha" operator="arithmetic" k2="-1" k3="1"/>
<feColorMatrix type="matrix" values="0 0 0 0 0.691275 0 0 0 0 0.853486 0 0 0 0 1 0 0 0 1 0"/>
<feBlend mode="normal" in2="shape" result="effect2_innerShadow_408_10915"/>
<feColorMatrix in="SourceAlpha" type="matrix" values="0 0 0 0 0 0 0 0 0 0 0 0 0 0 0 0 0 0 127 0" result="hardAlpha"/>
<feOffset dy="1"/>
<feGaussianBlur stdDeviation="0.5"/>
<feComposite in2="hardAlpha" operator="arithmetic" k2="-1" k3="1"/>
<feColorMatrix type="matrix" values="0 0 0 0 1 0 0 0 0 1 0 0 0 0 1 0 0 0 1 0"/>
<feBlend mode="normal" in2="effect2_innerShadow_408_10915" result="effect3_innerShadow_408_10915"/>
</filter>
<filter id="filter5_f_408_10915" x="12.667" y="12.666" width="16.5459" height="18.666" filterUnits="userSpaceOnUse" color-interpolation-filters="sRGB">
<feFlood flood-opacity="0" result="BackgroundImageFix"/>
<feBlend mode="normal" in="SourceGraphic" in2="BackgroundImageFix" result="shape"/>
<feGaussianBlur stdDeviation="1" result="effect1_foregroundBlur_408_10915"/>
</filter>
<filter id="filter6_ii_408_10915" x="12.666" y="12.666" width="20" height="20" filterUnits="userSpaceOnUse" color-interpolation-filters="sRGB">
<feFlood flood-opacity="0" result="BackgroundImageFix"/>
<feBlend mode="normal" in="SourceGraphic" in2="BackgroundImageFix" result="shape"/>
<feColorMatrix in="SourceAlpha" type="matrix" values="0 0 0 0 0 0 0 0 0 0 0 0 0 0 0 0 0 0 127 0" result="hardAlpha"/>
<feOffset dy="0.609524"/>
<feComposite in2="hardAlpha" operator="arithmetic" k2="-1" k3="1"/>
<feColorMatrix type="matrix" values="0 0 0 0 1 0 0 0 0 1 0 0 0 0 1 0 0 0 1 0"/>
<feBlend mode="normal" in2="shape" result="effect1_innerShadow_408_10915"/>
<feColorMatrix in="SourceAlpha" type="matrix" values="0 0 0 0 0 0 0 0 0 0 0 0 0 0 0 0 0 0 127 0" result="hardAlpha"/>
<feOffset dy="-0.609524"/>
<feComposite in2="hardAlpha" operator="arithmetic" k2="-1" k3="1"/>
<feColorMatrix type="matrix" values="0 0 0 0 0.388235 0 0 0 0 0.87451 0 0 0 0 0.952941 0 0 0 1 0"/>
<feBlend mode="normal" in2="effect1_innerShadow_408_10915" result="effect2_innerShadow_408_10915"/>
</filter>
<clipPath id="bgblur_0_408_10915_clip_path" transform="translate(-12.666 -12.666)"><path d="M27.6184 16.3879C26.2622 15.306 24.5403 14.666 22.666 14.666C20.7917 14.666 19.0394 15.3212 17.6679 16.4336C15.8241 17.8812 14.666 20.1517 14.666 22.666C14.666 24.1593 15.0927 25.5917 15.8241 26.7803C16.3879 27.7098 17.1193 28.5174 17.9879 29.1422C19.2984 30.1022 20.9136 30.666 22.666 30.666C24.6927 30.666 26.5213 29.9194 27.9232 28.6698C28.5479 28.1517 29.0812 27.5117 29.5079 26.7803C30.2393 25.5917 30.666 24.1593 30.666 22.666C30.666 20.1213 29.4774 17.8508 27.6184 16.3879Z"/>
</clipPath><filter id="filter7_f_408_10915" x="10.6826" y="3.82419" width="28.4444" height="28.4454" filterUnits="userSpaceOnUse" color-interpolation-filters="sRGB">
<feFlood flood-opacity="0" result="BackgroundImageFix"/>
<feBlend mode="normal" in="SourceGraphic" in2="BackgroundImageFix" result="shape"/>
<feGaussianBlur stdDeviation="4.06349" result="effect1_foregroundBlur_408_10915"/>
</filter>
<filter id="filter8_dii_408_10915" x="18" y="18" width="10" height="11" filterUnits="userSpaceOnUse" color-interpolation-filters="sRGB">
<feFlood flood-opacity="0" result="BackgroundImageFix"/>
<feColorMatrix in="SourceAlpha" type="matrix" values="0 0 0 0 0 0 0 0 0 0 0 0 0 0 0 0 0 0 127 0" result="hardAlpha"/>
<feOffset dy="1"/>
<feGaussianBlur stdDeviation="0.5"/>
<feComposite in2="hardAlpha" operator="out"/>
<feColorMatrix type="matrix" values="0 0 0 0 0.270588 0 0 0 0 0.65098 0 0 0 0 1 0 0 0 0.48 0"/>
<feBlend mode="multiply" in2="BackgroundImageFix" result="effect1_dropShadow_408_10915"/>
<feBlend mode="normal" in="SourceGraphic" in2="effect1_dropShadow_408_10915" result="shape"/>
<feColorMatrix in="SourceAlpha" type="matrix" values="0 0 0 0 0 0 0 0 0 0 0 0 0 0 0 0 0 0 127 0" result="hardAlpha"/>
<feOffset dy="-1"/>
<feGaussianBlur stdDeviation="0.5"/>
<feComposite in2="hardAlpha" operator="arithmetic" k2="-1" k3="1"/>
<feColorMatrix type="matrix" values="0 0 0 0 0.691275 0 0 0 0 0.853486 0 0 0 0 1 0 0 0 1 0"/>
<feBlend mode="normal" in2="shape" result="effect2_innerShadow_408_10915"/>
<feColorMatrix in="SourceAlpha" type="matrix" values="0 0 0 0 0 0 0 0 0 0 0 0 0 0 0 0 0 0 127 0" result="hardAlpha"/>
<feOffset dy="1"/>
<feGaussianBlur stdDeviation="0.5"/>
<feComposite in2="hardAlpha" operator="arithmetic" k2="-1" k3="1"/>
<feColorMatrix type="matrix" values="0 0 0 0 1 0 0 0 0 1 0 0 0 0 1 0 0 0 1 0"/>
<feBlend mode="normal" in2="effect2_innerShadow_408_10915" result="effect3_innerShadow_408_10915"/>
</filter>
<linearGradient id="paint0_linear_408_10915" x1="15.6064" y1="29.3328" x2="15.6064" y2="4.86739" gradientUnits="userSpaceOnUse">
<stop stop-color="#319BFF"/>
<stop offset="1" stop-color="#5BD1FF"/>
</linearGradient>
<linearGradient id="paint1_linear_408_10915" x1="18.74" y1="2.66602" x2="12.4734" y2="8.93268" gradientUnits="userSpaceOnUse">
<stop stop-color="#33EEFF"/>
<stop offset="1" stop-color="#67FEEB"/>
</linearGradient>
<linearGradient id="paint2_linear_408_10915" x1="30.666" y1="22.666" x2="14.666" y2="22.666" gradientUnits="userSpaceOnUse">
<stop stop-color="#56FFED"/>
<stop offset="1" stop-color="#49C8FE"/>
</linearGradient>
<linearGradient id="paint3_linear_408_10915" x1="31" y1="23" x2="15" y2="23" gradientUnits="userSpaceOnUse">
<stop stop-color="#56FFED"/>
<stop offset="1" stop-color="#49C8FE"/>
</linearGradient>
</defs>
</svg>
